<?xml version="1.0" encoding="UTF-8"?>
<svg xmlns="http://www.w3.org/2000/svg" version="1.1" width="500" height="500">
<rect x="0" y="0" width="500" height="500" stroke-width="2" stroke="black" fill-opacity="0" />
<circle cx="346.50" cy="445.50" r="4" fill="red"/>
<circle cx="178.00" cy="329.50" r="4" fill="red"/>
<circle cx="101.00" cy="14.00" r="4" fill="red"/>
<circle cx="192.00" cy="5.00" r="4" fill="red"/>
<circle cx="369.50" cy="81.00" r="4" fill="red"/>
<circle cx="44.50" cy="41.50" r="4" fill="red"/>
<circle cx="428.50" cy="409.00" r="4" fill="red"/>
<circle cx="382.00" cy="21.00" r="4" fill="red"/>
<circle cx="347.00" cy="346.00" r="4" fill="red"/>
<circle cx="144.00" cy="352.50" r="4" fill="red"/>
<rect x="281.50" y="93.00" width="9" height="9" fill="blue" stroke-width="2" stroke="black" fill-opacity="0.75" />
<rect x="142.50" y="178.00" width="9" height="9" stroke-width="2" stroke="black" fill-opacity="0"/>
<rect x="170.00" y="222.00" width="9" height="9" stroke-width="2" stroke="black" fill-opacity="0"/>
<rect x="202.00" y="412.50" width="9" height="9" fill="blue" stroke-width="2" stroke="black" fill-opacity="0.75" />
<rect x="89.00" y="196.00" width="9" height="9" stroke-width="2" stroke="black" fill-opacity="0"/>
<rect x="-1.00" y="289.00" width="9" height="9" stroke-width="2" stroke="black" fill-opacity="0"/>
<rect x="122.00" y="6.00" width="9" height="9" fill="blue" stroke-width="2" stroke="black" fill-opacity="0.75" />
<text x="291" y="123" font-family="sans-serif" font-size="20px">1</text>
<text x="152" y="208" font-family="sans-serif" font-size="20px">2</text>
<text x="180" y="252" font-family="sans-serif" font-size="20px">3</text>
<text x="212" y="442" font-family="sans-serif" font-size="20px">4</text>
<text x="99" y="226" font-family="sans-serif" font-size="20px">5</text>
<text x="9" y="319" font-family="sans-serif" font-size="20px">6</text>
<text x="132" y="36" font-family="sans-serif" font-size="20px">7</text>
<line x1="286.00" y1="97.50" x2="369.50" y2="81.00" stroke="blue" stroke-width="2"/>
<line x1="286.00" y1="97.50" x2="382.00" y2="21.00" stroke="blue" stroke-width="2"/>
<line x1="206.50" y1="417.00" x2="346.50" y2="445.50" stroke="blue" stroke-width="2"/>
<line x1="206.50" y1="417.00" x2="178.00" y2="329.50" stroke="blue" stroke-width="2"/>
<line x1="206.50" y1="417.00" x2="428.50" y2="409.00" stroke="blue" stroke-width="2"/>
<line x1="206.50" y1="417.00" x2="347.00" y2="346.00" stroke="blue" stroke-width="2"/>
<line x1="206.50" y1="417.00" x2="144.00" y2="352.50" stroke="blue" stroke-width="2"/>
<line x1="126.50" y1="10.50" x2="101.00" y2="14.00" stroke="blue" stroke-width="2"/>
<line x1="126.50" y1="10.50" x2="192.00" y2="5.00" stroke="blue" stroke-width="2"/>
<line x1="126.50" y1="10.50" x2="44.50" y2="41.50" stroke="blue" stroke-width="2"/>
</svg>
